<svg width="151" height="79" viewBox="0 0 151 79" fill="none" xmlns="http://www.w3.org/2000/svg">
<path d="M113.5 14.8125C114.983 14.8125 116.433 14.3781 117.667 13.5643C118.9 12.7505 119.861 11.5938 120.429 10.2405C120.997 8.88719 121.145 7.39804 120.856 5.96137C120.567 4.52469 119.852 3.20503 118.803 2.16924C117.754 1.13346 116.418 0.428084 114.963 0.142312C113.508 -0.143459 112 0.00320902 110.63 0.56377C109.259 1.12433 108.088 2.07361 107.264 3.29156C106.44 4.50951 106 5.94143 106 7.40625C106 9.37051 106.79 11.2543 108.197 12.6433C109.603 14.0322 111.511 14.8125 113.5 14.8125ZM112.875 33.4824C113.762 34.1835 114.864 34.5646 116 34.5625H126C127.326 34.5625 128.598 34.0423 129.536 33.1163C130.473 32.1904 131 30.9345 131 29.625C131 28.3155 130.473 27.0596 129.536 26.1337C128.598 25.2077 127.326 24.6875 126 24.6875H117.753L106.625 15.8926C105.717 15.1725 104.582 14.7889 103.418 14.808C102.253 14.8272 101.132 15.248 100.248 15.9975L82.7484 30.81C82.1623 31.3063 81.7005 31.9299 81.3992 32.632C81.0979 33.334 80.9654 34.0954 81.0121 34.8565C81.0587 35.6176 81.2832 36.3577 81.6679 37.0187C82.0527 37.6798 82.5872 38.2439 83.2297 38.6668L96 47.0791V64.1875C96 65.497 96.5268 66.7529 97.4645 67.6788C98.4022 68.6048 99.6739 69.125 101 69.125C102.326 69.125 103.598 68.6048 104.536 67.6788C105.473 66.7529 106 65.497 106 64.1875V44.4375C106 43.6248 105.797 42.8247 105.408 42.1082C105.02 41.3917 104.458 40.7809 103.773 40.3301L97.3109 36.0761L106.413 28.3737L112.875 33.4824ZM131 39.5C127.044 39.5 123.178 40.6583 119.889 42.8285C116.6 44.9986 114.036 48.0832 112.522 51.692C111.009 55.3008 110.613 59.2719 111.384 63.103C112.156 66.9342 114.061 70.4533 116.858 73.2154C119.655 75.9774 123.219 77.8585 127.098 78.6205C130.978 79.3826 134.999 78.9914 138.654 77.4966C142.308 76.0018 145.432 73.4704 147.629 70.2225C149.827 66.9746 151 63.1562 151 59.25C151 54.012 148.893 48.9885 145.142 45.2846C141.391 41.5808 136.304 39.5 131 39.5ZM131 69.125C129.022 69.125 127.089 68.5458 125.444 67.4608C123.8 66.3757 122.518 64.8334 121.761 63.029C121.004 61.2246 120.806 59.239 121.192 57.3235C121.578 55.4079 122.53 53.6484 123.929 52.2673C125.327 50.8863 127.109 49.9458 129.049 49.5647C130.989 49.1837 133 49.3793 134.827 50.1267C136.654 50.8741 138.216 52.1398 139.315 53.7637C140.414 55.3877 141 57.2969 141 59.25C141 61.869 139.946 64.3808 138.071 66.2327C136.196 68.0846 133.652 69.125 131 69.125ZM71 39.5C67.0444 39.5 63.1776 40.6583 59.8886 42.8285C56.5996 44.9986 54.0362 48.0832 52.5224 51.692C51.0087 55.3008 50.6126 59.2719 51.3843 63.103C52.156 66.9342 54.0608 70.4533 56.8579 73.2154C59.6549 75.9774 63.2186 77.8585 67.0982 78.6205C70.9778 79.3826 74.9992 78.9914 78.6537 77.4966C82.3082 76.0018 85.4318 73.4704 87.6294 70.2225C89.827 66.9746 91 63.1562 91 59.25C91 54.012 88.8929 48.9885 85.1421 45.2846C81.3914 41.5808 76.3043 39.5 71 39.5ZM71 69.125C69.0222 69.125 67.0888 68.5458 65.4443 67.4608C63.7998 66.3757 62.5181 64.8334 61.7612 63.029C61.0043 61.2246 60.8063 59.239 61.1922 57.3235C61.578 55.4079 62.5304 53.6484 63.9289 52.2673C65.3275 50.8863 67.1093 49.9458 69.0491 49.5647C70.9889 49.1837 72.9996 49.3793 74.8268 50.1267C76.6541 50.8741 78.2159 52.1398 79.3147 53.7637C80.4135 55.3877 81 57.2969 81 59.25C81 61.869 79.9464 64.3808 78.0711 66.2327C76.1957 68.0846 73.6522 69.125 71 69.125Z" fill="white"/>
<path d="M59.64 50.7188C60.0948 49.5246 60.35 48.2188 60.35 46.8571C60.35 40.942 55.5797 36.1429 49.7 36.1429C47.5145 36.1429 45.4733 36.8125 43.787 37.9509C40.7141 32.5937 34.9786 29 28.4 29C18.5931 29 10.65 36.9911 10.65 46.8571C10.65 47.1585 10.6611 47.4598 10.6722 47.7612C4.45969 49.9598 0 55.9196 0 62.9286C0 71.8013 7.15547 79 15.975 79H56.8C64.6433 79 71 72.6049 71 64.7143C71 57.8058 66.1187 52.0357 59.64 50.7188Z" fill="white"/>
</svg>
