<svg width="64" height="64" viewBox="0 0 64 64" fill="none" xmlns="http://www.w3.org/2000/svg">
<path d="M56.904 49.6411C60.8836 46.0943 63.137 41.3667 63.137 36.4607C63.137 31.2469 60.6962 26.3708 56.2641 22.7299C51.9506 19.1875 46.241 17.2363 40.1863 17.2363C34.1317 17.2363 28.4221 19.1875 24.1092 22.7301C19.6771 26.3708 17.2363 31.2469 17.2363 36.4607C17.2363 41.6746 19.6771 46.5506 24.1092 50.1916C28.4221 53.7343 34.1317 55.6853 40.1863 55.6853C40.9931 55.6853 41.8048 55.6497 42.6098 55.5789L43.9849 56.7708C48.7225 60.8761 54.7812 63.1361 61.05 63.1363H63.1363V58.6954L62.5253 58.0845C60.1148 55.6668 58.2046 52.7976 56.904 49.6411ZM46.7178 53.6173L43.9585 51.2257L43.0384 51.3385C42.0921 51.4542 41.1397 51.5122 40.1863 51.5123C29.8327 51.5123 21.4091 44.7602 21.4091 36.4607C21.4091 28.1613 29.8327 21.4091 40.1863 21.4091C50.5399 21.4091 58.9636 28.1612 58.9636 36.4607C58.9636 40.5956 56.9007 44.4559 53.1549 47.3304L51.9533 48.2525L52.5077 49.8218C53.644 53.0269 55.3141 56.0168 57.4475 58.665C53.4746 58.0018 49.7617 56.2551 46.7178 53.6173Z" fill="#4E9753"/>
<path d="M6.30655 39.8572C8.25955 37.385 9.79294 34.6087 10.8454 31.6391L11.3957 30.0776L10.1951 29.1562C6.66292 26.4458 4.71765 22.808 4.71765 18.9128C4.71765 11.0858 12.6731 4.71814 22.4517 4.71814C29.6455 4.71814 35.8523 8.16455 38.6311 13.1027C39.1471 13.0777 39.6653 13.0636 40.1858 13.0636C41.2314 13.0636 42.2673 13.1143 43.2937 13.2158C42.2199 10.4337 40.355 7.8941 37.7909 5.78818C33.6753 2.40736 28.2284 0.54541 22.4517 0.54541C16.6751 0.54541 11.2281 2.40736 7.11227 5.78818C2.87722 9.26706 0.544922 13.9281 0.544922 18.9128C0.544922 23.5811 2.67719 28.0792 6.44542 31.4627C5.21569 34.4221 3.41883 37.1122 1.1561 39.3816L0.544922 39.9927V44.359H2.63129C6.48937 44.3586 10.2944 43.4601 13.7452 41.7348C13.3668 40.3006 13.1451 38.8296 13.084 37.3476C10.9895 38.5751 8.69538 39.4246 6.30655 39.8572Z" fill="#4E9753"/>
</svg>
