<svg width="71" height="94" viewBox="0 0 71 94" fill="none" xmlns="http://www.w3.org/2000/svg">
<path d="M35.4829 2.76358C35.6195 3.61803 38.2308 19.9435 38.2308 26.1791C38.2308 35.6871 33.4861 42.4682 26.4714 45.1952L28.6731 88.4812C28.7925 90.9718 26.9322 93.0807 24.5769 93.0807H13.6538C11.3156 93.0807 9.43822 90.99 9.55769 88.4812L11.7594 45.1952C4.72764 42.4682 0 35.669 0 26.1791C0 19.9253 2.6113 3.61803 2.74784 2.76358C3.29399 -0.926908 10.4793 -0.981448 10.9231 2.96356V28.6334C11.145 29.2515 13.5002 29.2151 13.6538 28.6334C13.8928 24.0339 15.0022 3.32716 15.0192 2.85448C15.5825 -0.926908 22.6483 -0.926908 23.1945 2.85448C23.2286 3.34534 24.3209 24.0339 24.5599 28.6334C24.7135 29.2151 27.0858 29.2515 27.2906 28.6334V2.96356C27.7344 -0.963268 34.9368 -0.926908 35.4829 2.76358ZM55.8272 54.7032L53.2671 88.3539C53.0623 90.8991 54.9567 93.0807 57.3462 93.0807H66.9038C69.1738 93.0807 71 91.1354 71 88.7175V4.3634C71 1.96367 69.1738 0.000259835 66.9038 0.000259835C52.8233 0.000259835 29.1168 32.4511 55.8272 54.7032Z" fill="#FFFFFF"/>
</svg>
