<svg width="75" height="71" viewBox="0 0 75 71" fill="none" xmlns="http://www.w3.org/2000/svg">
<path d="M37.5 0C28.4388 0 21.0938 7.80796 21.0938 17.4402C21.0938 25.2274 31.8164 39.4204 35.9245 44.5722C36.7565 45.6159 38.2448 45.6159 39.0755 44.5722C43.1836 39.4204 53.9062 25.2274 53.9062 17.4402C53.9062 7.80796 46.5612 0 37.5 0ZM37.5 23.2536C34.4792 23.2536 32.0312 20.6514 32.0312 17.4402C32.0312 14.229 34.4792 11.6268 37.5 11.6268C40.5208 11.6268 42.9688 14.229 42.9688 17.4402C42.9688 20.6514 40.5208 23.2536 37.5 23.2536ZM2.61979 29.8906C1.84659 30.2194 1.18376 30.7868 0.716809 31.5198C0.249855 32.2528 0.000185183 33.1177 0 34.0029L0 68.6508C0 70.2177 1.48828 71.289 2.85677 70.7077L20.8333 62.0097V29.748C19.6823 27.5362 18.7409 25.3825 18.0664 23.3228L2.61979 29.8906ZM37.5 49.7835C35.668 49.7835 33.9349 48.9281 32.7461 47.436C30.1862 44.2248 27.4635 40.5679 25 36.8169V62.0083L50 70.8668V36.8183C47.5365 40.5679 44.8151 44.2262 42.2539 47.4374C41.0651 48.9281 39.332 49.7835 37.5 49.7835ZM72.1432 22.3069L54.1667 31.0048V70.8682L72.3802 63.1239C73.1535 62.7953 73.8164 62.2279 74.2834 61.4949C74.7504 60.7619 75 59.8969 75 59.0116V24.3637C75 22.7969 73.5117 21.7255 72.1432 22.3069Z" fill="black"/>
</svg>
