<svg width="287" height="45" viewBox="0 0 287 45" fill="none" xmlns="http://www.w3.org/2000/svg">
<path d="M1.6438 40V9.04001H6.5458V22.37L17.8978 8.73901L23.0148 9.34101L12.8238 21.252L23.7028 40H18.0698L9.5988 24.993L6.5458 28.605V40H1.6438Z" fill="#F4D6B3"/>
<path d="M46.0178 16.737V34.625C46.0178 35.657 46.1325 36.3163 46.3618 36.603C46.6198 36.8897 47.1788 37.033 48.0388 37.033L48.2108 39.742C47.4941 40 46.7345 40.129 45.9318 40.129C44.1831 40.129 42.9505 39.441 42.2338 38.065C40.3704 39.699 38.0341 40.516 35.2248 40.516C30.0075 40.516 27.3988 37.7067 27.3988 32.088V17.339L32.0428 16.737V31.228C32.0428 35.012 33.5478 36.904 36.5578 36.904C38.6218 36.904 40.2271 36.302 41.3738 35.098V17.339L46.0178 16.737Z" fill="#F4D6B3"/>
<path d="M54.8398 7.57801L59.4838 6.97601V32.905C59.4838 35.571 60.2435 36.904 61.7628 36.904C62.1355 36.904 62.8235 36.8037 63.8268 36.603L64.3858 39.785C64.3572 39.785 64.2282 39.828 63.9988 39.914C63.7982 40 63.5545 40.086 63.2678 40.172C62.5512 40.4013 61.6768 40.516 60.6448 40.516C58.6668 40.516 57.2048 39.8567 56.2588 38.538C55.3128 37.1907 54.8398 35.3417 54.8398 32.991V7.57801Z" fill="#F4D6B3"/>
<path d="M71.1903 7.32001C71.9069 7.32001 72.5089 7.54935 72.9963 8.00801C73.4836 8.43801 73.7272 9.09735 73.7272 9.98601C73.7272 11.8493 72.7526 12.781 70.8033 12.781C70.1152 12.781 69.5419 12.566 69.0833 12.136C68.6246 11.6773 68.3952 11.018 68.3952 10.158C68.3952 8.26601 69.3269 7.32001 71.1903 7.32001ZM68.7393 40V17.339L73.3833 16.737V40H68.7393Z" fill="#F4D6B3"/>
<path d="M81.9668 24.348C81.9668 21.768 81.7088 19.446 81.1928 17.382L84.8048 16.909L85.6218 19.059C88.0298 17.3677 90.4951 16.522 93.0178 16.522C98.2351 16.522 100.844 19.3313 100.844 24.95V40H96.1998V25.81C96.1998 22.026 94.6948 20.134 91.6848 20.134C89.9361 20.134 88.2448 20.7503 86.6108 21.983V40H81.9668V24.348Z" fill="#F4D6B3"/>
<path d="M123.64 35.098L125.231 38.022C124.743 38.4807 123.712 39.011 122.135 39.613C120.558 40.215 118.867 40.516 117.061 40.516C113.85 40.516 111.256 39.5413 109.278 37.592C107.329 35.6427 106.354 32.7187 106.354 28.82C106.354 26.67 106.698 24.778 107.386 23.144C108.074 21.4813 108.963 20.1913 110.052 19.274C112.288 17.4393 114.624 16.522 117.061 16.522C119.526 16.522 121.476 17.1527 122.909 18.414C124.371 19.6467 125.102 21.166 125.102 22.972C125.102 25.3513 123.97 27.3007 121.705 28.82C119.44 30.3107 115.814 31.056 110.826 31.056C110.826 32.3747 111.371 33.679 112.46 34.969C113.578 36.259 115.212 36.904 117.362 36.904C119.541 36.904 121.633 36.302 123.64 35.098ZM120.931 23.359C120.931 22.499 120.601 21.7537 119.942 21.123C119.311 20.4637 118.408 20.134 117.233 20.134C115.341 20.134 113.779 20.8507 112.546 22.284C111.342 23.6887 110.726 25.5377 110.697 27.831C117.52 27.831 120.931 26.3403 120.931 23.359Z" fill="#F4D6B3"/>
<path d="M131.392 24.348C131.392 21.768 131.134 19.446 130.618 17.382L134.23 16.909L135.305 19.704C137.111 17.5827 139.146 16.522 141.411 16.522C142.93 16.522 144.105 16.8803 144.937 17.597C145.797 18.3137 146.227 19.3313 146.227 20.65C146.227 21.9687 146.012 23.1297 145.582 24.133L141.884 23.66C141.884 22.37 141.755 21.467 141.497 20.951C141.267 20.4063 140.766 20.134 139.992 20.134C139.246 20.134 138.501 20.435 137.756 21.037C137.039 21.639 136.466 22.3127 136.036 23.058V40H131.392V24.348Z" fill="#F4D6B3"/>
<path d="M151.136 40V9.04001H156.038V22.37L167.39 8.73901L172.507 9.34101L162.316 21.252L173.195 40H167.562L159.091 24.993L156.038 28.605V40H151.136Z" fill="#F4D6B3"/>
<path d="M180.412 7.32001C181.129 7.32001 181.731 7.54935 182.218 8.00801C182.705 8.43801 182.949 9.09735 182.949 9.98601C182.949 11.8493 181.974 12.781 180.025 12.781C179.337 12.781 178.764 12.566 178.305 12.136C177.846 11.6773 177.617 11.018 177.617 10.158C177.617 8.26601 178.549 7.32001 180.412 7.32001ZM177.961 40V17.339L182.605 16.737V40H177.961Z" fill="#F4D6B3"/>
<path d="M192.607 12.437L196.262 11.964V17.855H202.927L202.411 20.951H196.262V32.475C196.262 34.023 196.492 35.1553 196.95 35.872C197.438 36.56 198.183 36.904 199.186 36.904C200.19 36.904 201.322 36.7893 202.583 36.56L203.142 39.699C201.365 40.2437 199.645 40.516 197.982 40.516C195.66 40.516 194.012 39.8997 193.037 38.667C192.091 37.4343 191.618 35.6857 191.618 33.421V20.951H188.393V18.285L191.618 17.855L192.607 12.437Z" fill="#F4D6B3"/>
<path d="M226.533 18.457V34.539C226.533 35.5423 226.648 36.216 226.877 36.56C227.106 36.8753 227.665 37.033 228.554 37.033L228.726 39.742C228.009 40 227.25 40.129 226.447 40.129C224.211 40.129 222.878 39.1113 222.448 37.076C220.929 39.3693 218.678 40.516 215.697 40.516C212.744 40.516 210.537 39.4123 209.075 37.205C207.642 34.9977 206.925 32.1597 206.925 28.691C206.925 25.1937 207.914 22.2983 209.892 20.005C211.87 17.683 214.522 16.522 217.847 16.522C219.194 16.522 220.757 16.737 222.534 17.167C224.34 17.5683 225.673 17.9983 226.533 18.457ZM211.827 29.035C211.827 31.8157 212.243 33.8223 213.074 35.055C213.934 36.2877 215.167 36.904 216.772 36.904C218.377 36.904 219.624 36.345 220.513 35.227C221.43 34.0803 221.889 32.6757 221.889 31.013V20.693C220.771 20.3203 219.495 20.134 218.062 20.134C215.883 20.134 214.292 20.9223 213.289 22.499C212.314 24.0757 211.827 26.2543 211.827 29.035Z" fill="#F4D6B3"/>
<rect x="246.559" width="40.3698" height="44.0398" rx="11" fill="#F4D6B3"/>
<rect x="258.434" y="15.7473" width="2.24058" height="24.4427" rx="1.12029" fill="#499755"/>
<rect x="253.546" y="5.08148" width="12.2214" height="15.9989" rx="6.11068" fill="#499755"/>
<rect x="273.354" y="15.7385" width="2.24058" height="24.4427" rx="1.12029" fill="#499755"/>
<rect x="268.873" y="5.08148" width="2.24058" height="12.2214" rx="1.12029" fill="#499755"/>
<rect x="273.354" y="5.08148" width="2.24058" height="9.77709" rx="1.12029" fill="#499755"/>
<rect x="277.835" y="5.08148" width="2.24058" height="12.2214" rx="1" fill="#499755"/>
<rect x="268.873" y="12.4141" width="11.2029" height="7.33282" rx="1" fill="#499755"/>
<rect x="0.669922" width="62.3897" height="3.66998" rx="1.83499" fill="#F4D6B3"/>
</svg>
