<svg width="31" height="31" viewBox="0 0 186 138" fill="none" xmlns="http://www.w3.org/2000/svg">
<path d="M0 137.557V112.284H4.0016V123.165L13.2685 112.038L17.4456 112.529L9.12646 122.252L18.0072 137.557H13.4089L6.49382 125.306L4.0016 128.255V137.557H0Z" fill="white"/>
<path d="M36.2234 118.567V133.169C36.2234 134.012 36.317 134.55 36.5042 134.784C36.7148 135.018 37.1711 135.135 37.8731 135.135L38.0136 137.346C37.4285 137.557 36.8084 137.662 36.1532 137.662C34.7257 137.662 33.7194 137.1 33.1344 135.977C31.6133 137.311 29.7061 137.978 27.4128 137.978C23.1538 137.978 21.0243 135.685 21.0243 131.098V119.058L24.8153 118.567V130.396C24.8153 133.485 26.0439 135.029 28.501 135.029C30.1859 135.029 31.4963 134.538 32.4324 133.555V119.058L36.2234 118.567Z" fill="white"/>
<path d="M43.425 111.09L47.216 110.599V131.765C47.216 133.941 47.8361 135.029 49.0764 135.029C49.3806 135.029 49.9422 134.948 50.7612 134.784L51.2176 137.381C51.1942 137.381 51.0889 137.416 50.9017 137.487C50.7379 137.557 50.5389 137.627 50.3049 137.697C49.7199 137.884 49.0062 137.978 48.1637 137.978C46.549 137.978 45.3556 137.44 44.5833 136.363C43.8111 135.263 43.425 133.754 43.425 131.835V111.09Z" fill="white"/>
<path d="M56.7721 110.879C57.3572 110.879 57.8486 111.067 58.2464 111.441C58.6442 111.792 58.8432 112.33 58.8432 113.056C58.8432 114.577 58.0475 115.337 56.4562 115.337C55.8946 115.337 55.4266 115.162 55.0522 114.811C54.6777 114.436 54.4905 113.898 54.4905 113.196C54.4905 111.652 55.2511 110.879 56.7721 110.879ZM54.7713 137.557V119.058L58.5623 118.567V137.557H54.7713Z" fill="white"/>
<path d="M65.5693 124.78C65.5693 122.674 65.3586 120.778 64.9374 119.093L67.886 118.707L68.5529 120.462C70.5186 119.082 72.5311 118.391 74.5904 118.391C78.8494 118.391 80.9789 120.685 80.9789 125.271V137.557H77.1879V125.973C77.1879 122.884 75.9594 121.34 73.5022 121.34C72.0748 121.34 70.6941 121.843 69.3602 122.849V137.557H65.5693V124.78Z" fill="white"/>
<path d="M99.5878 133.555L100.887 135.942C100.489 136.317 99.6463 136.749 98.3592 137.241C97.0722 137.732 95.6915 137.978 94.2172 137.978C91.5963 137.978 89.4785 137.182 87.8638 135.591C86.2725 134 85.4769 131.613 85.4769 128.43C85.4769 126.675 85.7577 125.131 86.3193 123.797C86.881 122.44 87.6064 121.387 88.4956 120.638C90.3209 119.14 92.2281 118.391 94.2172 118.391C96.2297 118.391 97.821 118.906 98.9911 119.936C100.185 120.942 100.781 122.182 100.781 123.656C100.781 125.599 99.8569 127.19 98.0082 128.43C96.1595 129.647 93.1993 130.256 89.1275 130.256C89.1275 131.332 89.5721 132.397 90.4613 133.45C91.374 134.503 92.7078 135.029 94.4629 135.029C96.2414 135.029 97.9497 134.538 99.5878 133.555ZM97.3764 123.972C97.3764 123.27 97.1073 122.662 96.569 122.147C96.0542 121.609 95.3171 121.34 94.3576 121.34C92.8132 121.34 91.5378 121.925 90.5315 123.095C89.5487 124.242 89.0456 125.751 89.0222 127.623C94.5916 127.623 97.3764 126.406 97.3764 123.972Z" fill="white"/>
<path d="M105.916 124.78C105.916 122.674 105.705 120.778 105.284 119.093L108.232 118.707L109.11 120.989C110.584 119.257 112.246 118.391 114.094 118.391C115.335 118.391 116.294 118.684 116.973 119.269C117.675 119.854 118.026 120.685 118.026 121.761C118.026 122.837 117.85 123.785 117.499 124.604L114.481 124.218C114.481 123.165 114.375 122.428 114.165 122.007C113.977 121.562 113.568 121.34 112.936 121.34C112.328 121.34 111.719 121.585 111.111 122.077C110.526 122.568 110.058 123.118 109.707 123.727V137.557H105.916V124.78Z" fill="white"/>
<path d="M122.033 137.557V112.284H126.035V123.165L135.302 112.038L139.479 112.529L131.16 122.252L140.041 137.557H135.442L128.527 125.306L126.035 128.255V137.557H122.033Z" fill="white"/>
<path d="M145.932 110.879C146.517 110.879 147.008 111.067 147.406 111.441C147.804 111.792 148.003 112.33 148.003 113.056C148.003 114.577 147.207 115.337 145.616 115.337C145.054 115.337 144.586 115.162 144.212 114.811C143.838 114.436 143.65 113.898 143.65 113.196C143.65 111.652 144.411 110.879 145.932 110.879ZM143.931 137.557V119.058L147.722 118.567V137.557H143.931Z" fill="white"/>
<path d="M155.887 115.057L158.871 114.67V119.479H164.312L163.891 122.007H158.871V131.414C158.871 132.678 159.058 133.602 159.433 134.187C159.831 134.749 160.439 135.029 161.258 135.029C162.077 135.029 163.001 134.936 164.031 134.749L164.487 137.311C163.036 137.756 161.632 137.978 160.275 137.978C158.38 137.978 157.034 137.475 156.238 136.469C155.466 135.462 155.08 134.035 155.08 132.186V122.007H152.447V119.83L155.08 119.479L155.887 115.057Z" fill="white"/>
<path d="M183.582 119.971V133.099C183.582 133.918 183.675 134.468 183.862 134.749C184.05 135.006 184.506 135.135 185.231 135.135L185.372 137.346C184.787 137.557 184.167 137.662 183.511 137.662C181.686 137.662 180.598 136.831 180.247 135.17C179.007 137.042 177.17 137.978 174.736 137.978C172.326 137.978 170.524 137.077 169.33 135.275C168.16 133.473 167.575 131.157 167.575 128.325C167.575 125.47 168.383 123.107 169.997 121.234C171.612 119.339 173.777 118.391 176.491 118.391C177.591 118.391 178.866 118.567 180.317 118.918C181.791 119.245 182.88 119.596 183.582 119.971ZM171.577 128.606C171.577 130.876 171.916 132.514 172.595 133.52C173.297 134.526 174.303 135.029 175.614 135.029C176.924 135.029 177.942 134.573 178.667 133.66C179.416 132.724 179.791 131.578 179.791 130.221V121.796C178.878 121.492 177.837 121.34 176.667 121.34C174.888 121.34 173.589 121.983 172.77 123.27C171.975 124.557 171.577 126.336 171.577 128.606Z" fill="white"/>
<rect x="51.7871" y="41.0269" width="78.979" height="64.3532" rx="4" fill="white"/>
<rect x="78.6445" y="65.4919" width="2.92515" height="29.2515" rx="1.46257" fill="#499755"/>
<rect x="72.2632" y="52.7275" width="15.9553" height="19.1464" rx="7" fill="#499755"/>
<rect x="98.5894" y="65.4812" width="2.92515" height="29.2515" rx="1.46257" fill="#499755"/>
<rect x="92.7393" y="52.7275" width="2.92515" height="14.6257" rx="1.46257" fill="#499755"/>
<rect x="98.5894" y="52.7275" width="2.92515" height="11.7006" rx="1.46257" fill="#499755"/>
<rect x="104.44" y="52.7275" width="2.92515" height="14.6257" rx="1" fill="#499755"/>
<rect x="92.7393" y="61.5029" width="14.6257" height="8.77544" rx="1" fill="#499755"/>
<path d="M57.6372 46.8772C57.6372 -11.6257 124.916 -11.6257 124.916 46.8772" stroke="white" stroke-width="6"/>
</svg>
