<svg width="28" height="28" viewBox="0 0 28 28" fill="none" xmlns="http://www.w3.org/2000/svg">
<path d="M26.3808 8.2857H1.61888C1.3663 8.2857 1.12406 8.38604 0.94545 8.56465C0.766844 8.74326 0.666504 8.9855 0.666504 9.23809L0.666504 11.1428C0.666504 11.3954 0.766844 11.6377 0.94545 11.8163C1.12406 11.9949 1.3663 12.0952 1.61888 12.0952H26.3808C26.6334 12.0952 26.8756 11.9949 27.0542 11.8163C27.2328 11.6377 27.3332 11.3954 27.3332 11.1428V9.23809C27.3332 8.9855 27.2328 8.74326 27.0542 8.56465C26.8756 8.38604 26.6334 8.2857 26.3808 8.2857ZM26.3808 23.5238H1.61888C1.3663 23.5238 1.12406 23.6241 0.94545 23.8027C0.766844 23.9814 0.666504 24.2236 0.666504 24.4762L0.666504 26.3809C0.666504 26.6335 0.766844 26.8758 0.94545 27.0544C1.12406 27.233 1.3663 27.3333 1.61888 27.3333H26.3808C26.6334 27.3333 26.8756 27.233 27.0542 27.0544C27.2328 26.8758 27.3332 26.6335 27.3332 26.3809V24.4762C27.3332 24.2236 27.2328 23.9814 27.0542 23.8027C26.8756 23.6241 26.6334 23.5238 26.3808 23.5238ZM7.10103 4.47618H20.8992C20.9938 4.47618 21.0874 4.45755 21.1748 4.42134C21.2621 4.38514 21.3415 4.33208 21.4083 4.26519C21.4752 4.1983 21.5281 4.1189 21.5643 4.03152C21.6004 3.94414 21.619 3.8505 21.6189 3.75594V1.3863C21.6189 1.29179 21.6003 1.19822 21.5641 1.1109C21.5279 1.02359 21.4749 0.94426 21.4081 0.877435C21.3413 0.81061 21.2619 0.757602 21.1746 0.721436C21.0873 0.685271 20.9937 0.666657 20.8992 0.666657H7.10103C7.00647 0.666579 6.91283 0.685135 6.82545 0.721265C6.73807 0.757396 6.65867 0.810392 6.59178 0.877225C6.52489 0.944057 6.47183 1.02342 6.43563 1.11077C6.39942 1.19812 6.38079 1.29174 6.38079 1.3863V3.75594C6.38079 3.94696 6.45667 4.13016 6.59174 4.26523C6.72681 4.4003 6.91001 4.47618 7.10103 4.47618ZM20.8992 19.7143C20.9938 19.7143 21.0874 19.6956 21.1748 19.6594C21.2621 19.6232 21.3415 19.5702 21.4083 19.5033C21.4752 19.4364 21.5281 19.357 21.5643 19.2696C21.6004 19.1822 21.619 19.0886 21.6189 18.994V16.6244C21.6189 16.4335 21.5431 16.2505 21.4081 16.1155C21.2731 15.9806 21.0901 15.9048 20.8992 15.9048H7.10103C7.00647 15.9047 6.91283 15.9232 6.82545 15.9594C6.73807 15.9955 6.65867 16.0485 6.59178 16.1153C6.52489 16.1822 6.47183 16.2615 6.43563 16.3489C6.39942 16.4362 6.38079 16.5298 6.38079 16.6244V18.994C6.38079 19.0886 6.39942 19.1823 6.43562 19.2697C6.47181 19.357 6.52486 19.4364 6.59174 19.5033C6.65862 19.5702 6.73802 19.6233 6.8254 19.6595C6.91279 19.6956 7.00644 19.7143 7.10103 19.7143H20.8992Z" fill="#499755"/>
</svg>
