<svg width="58" height="50" viewBox="0 0 58 50" fill="none" xmlns="http://www.w3.org/2000/svg">
<path d="M4.8335 4.16666H9.03851C11.6485 4.16666 13.7027 6.10416 13.4852 8.33332L11.4793 29.0833C11.141 32.4791 14.2585 35.3958 18.2218 35.3958H43.9593C47.4393 35.3958 50.4843 32.9375 50.7502 29.9583L52.0551 14.3333C52.3451 10.875 49.3002 8.06248 45.2643 8.06248H14.0652" stroke="#F4D6B3" stroke-width="1.5" stroke-miterlimit="10" stroke-linecap="round" stroke-linejoin="round"/>
<path d="M39.2708 45.8333C40.9392 45.8333 42.2917 44.6674 42.2917 43.2292C42.2917 41.7909 40.9392 40.625 39.2708 40.625C37.6025 40.625 36.25 41.7909 36.25 43.2292C36.25 44.6674 37.6025 45.8333 39.2708 45.8333Z" stroke="#F4D6B3" stroke-width="1.5" stroke-miterlimit="10" stroke-linecap="round" stroke-linejoin="round"/>
<path d="M19.9373 45.8333C21.6057 45.8333 22.9582 44.6674 22.9582 43.2292C22.9582 41.7909 21.6057 40.625 19.9373 40.625C18.269 40.625 16.9165 41.7909 16.9165 43.2292C16.9165 44.6674 18.269 45.8333 19.9373 45.8333Z" stroke="#F4D6B3" stroke-width="1.5" stroke-miterlimit="10" stroke-linecap="round" stroke-linejoin="round"/>
<path d="M21.75 16.6667H50.75" stroke="#F4D6B3" stroke-width="1.5" stroke-miterlimit="10" stroke-linecap="round" stroke-linejoin="round"/>
</svg>
